<?xml version="1.0" encoding="utf-8"?>
<!-- Generator: Adobe Illustrator 24.1.1, SVG Export Plug-In . SVG Version: 6.00 Build 0)  -->
<svg version="1.1" id="Layer_1" xmlns="http://www.w3.org/2000/svg" xmlns:xlink="http://www.w3.org/1999/xlink" x="0px" y="0px"
	 viewBox="0 0 512 512" style="enable-background:new 0 0 512 512;" xml:space="preserve">
<style type="text/css">
	.st0{fill:#F1C40F;}
	.st1{fill:#BDC3C7;}
	.st2{fill:#ECF0F1;}
	.st3{fill:#95A5A6;}
	.st4{fill:#F39C12;}
</style>
<g id="XMLID_1_">
	<path id="XMLID_3_" class="st0" d="M25.6,77.2v383.6c0,28.4,22.8,51.2,51.2,51.2h256c28.4,0,51.2-22.8,51.2-51.2V77.2H25.6z"/>
	<path id="XMLID_4_" class="st1" d="M25.6,0v26.8v50.4v51.2v332.4c0,28.4,22.8,51.2,51.2,51.2h256c28.4,0,51.2-22.8,51.2-51.2V77.2
		V0h-26v128.4v332.4c0,14.2-11.8,26-26,26H76.8c-14.2,0-26-11.8-26-26V128.4V77.2V26.8V0H25.6z"/>
	<path id="XMLID_5_" class="st2" d="M384,102.4v18.1v7.9v25.2h26c14.2,0,26,10.2,26,26V256v77.2c0,12.6-11.8,26-26,26h-26v26v4.7
		v20.5h51.2c28.4,0,51.2-22.8,51.2-51.2V308v-52v-51.2v-51.2c0-28.4-22.8-51.2-51.2-51.2H384z"/>
	<path id="XMLID_6_" class="st1" d="M409.2,102.4c28.4,0,51.2,22.8,51.2,51.2v51.2V256v51.2v51.2c0,28.4-22.8,51.2-51.2,51.2h26
		c28.4,0,51.2-22.8,51.2-51.2v-51.2V256v-51.2v-51.2c0-28.4-22.8-51.2-51.2-51.2H409.2z"/>
	<path id="XMLID_7_" class="st3" d="M25.6,435.6v25.2c0,28.4,22.8,51.2,51.2,51.2h256c28.4,0,51.2-22.8,51.2-51.2v-26
		c0,28.4-22.8,51.2-51.2,51.2h-256C48.4,486.8,25.6,463.2,25.6,435.6z"/>
	<path id="XMLID_11_" class="st4" d="M102,128.4c-14.2,0-26,10.2-26,26v282c0,12.6,11.8,26,26,26v-26V153.6V128.4z M204.4,128.4
		c-14.2,0-26,10.2-26,26v282c0,12.6,11.8,26,26,26v-26V153.6V128.4z M306.8,128.4c-14.2,0-26,10.2-26,26v282c0,12.6,11.8,26,26,26
		v-26V153.6V128.4z"/>
	<path id="XMLID_12_" class="st2" d="M50.8,26v7.9v43.3v61.4c5.5,2.4,11.8,4.7,18.1,4.7c18.1,0,32.3-12.6,37-30.7
		c4.7,2.4,9.5,4.7,14.2,4.7c4.7,0,9.5-2.4,13.4-2.4c0,0-0.8,0-0.8,2.4c0,12.6,11.8,26,26,26c6.3,0,12.6-2.4,16.5-7.9
		c6.3,4.7,13.4,7.9,21.3,7.9c17.3,0,30.7-12.6,36.2-28.4l2.4,2.4c14.2,0,26-12.6,26-26c0,12.6,11.8,26,26,26c14.2,0,26-12.6,26-26
		h2.4c5.5,12.6,18.9,26,36.2,26c2.4,0,4.7-2.4,7.1-2.4V76.4V33.1v-7.9h-308V26z"/>
	<path id="XMLID_13_" class="st2" d="M50.8,77.2v383.6c0,12.6,11.8,26,26,26h256c14.2,0,26-12.6,26-26V77.2h-26v383.6h-256V77.2
		H50.8z"/>
</g>
</svg>
